<svg xmlns="http://www.w3.org/2000/svg" xmlns:xlink="http://www.w3.org/1999/xlink" width="176" height="211" viewBox="0 0 176 211">
  <defs>
    <filter id="Path_222" x="-8" y="-6" width="192.166" height="227" filterUnits="userSpaceOnUse">
      <feOffset dy="3" input="SourceAlpha"/>
      <feGaussianBlur stdDeviation="3" result="blur"/>
      <feFlood flood-opacity="0.161"/>
      <feComposite operator="in" in2="blur"/>
      <feComposite in="SourceGraphic"/>
    </filter>
    <clipPath id="clip-build_green_1_1">
      <rect width="176" height="211"/>
    </clipPath>
  </defs>
  <g id="build_green_1_1" data-name="build green 1 – 1" clip-path="url(#clip-build_green_1_1)">
    <g id="Group_1900" data-name="Group 1900" transform="translate(-19 -33)">
      <g id="Office" transform="translate(-228 -349)">
        <g id="pin_1_" data-name="pin (1)" transform="translate(248 382)">
          <g id="Group_24" data-name="Group 24">
            <g transform="matrix(1, 0, 0, 1, -1, 0)" filter="url(#Path_222)">
              <path id="Path_222-2" data-name="Path 222" d="M129.75,0A87.068,87.068,0,0,0,68.4,148.866l58.254,58.841a4.352,4.352,0,0,0,6.191,0L191.074,148.9A87.072,87.072,0,0,0,129.75,0Zm0,121.917a34.833,34.833,0,1,1,34.833-34.834A34.87,34.87,0,0,1,129.75,121.917Z" transform="translate(-41.67)" fill="#23b868"/>
            </g>
          </g>
        </g>
        <ellipse id="Ellipse_5" data-name="Ellipse 5" cx="77" cy="75" rx="77" ry="75" transform="translate(257 391)" fill="#fff"/>
        <path id="workplace" d="M101.777,97.353V42.039A2.215,2.215,0,0,0,100.436,40L69.461,26.729a2.213,2.213,0,0,0-3.084,2.036V97.353H61.951V3.32a3.316,3.316,0,0,0-4.5-3.1l-46.463,17.7a3.32,3.32,0,0,0-2.137,3.1V97.353H4.425a4.425,4.425,0,0,0,0,8.85h97.352a4.425,4.425,0,0,0,0-8.85ZM88.5,56.421a3.319,3.319,0,1,1,6.638,0v6.638a3.319,3.319,0,1,1-6.638,0Zm0,26.551a3.319,3.319,0,1,1,6.638,0v6.638a3.319,3.319,0,1,1-6.638,0ZM73.014,56.421a3.319,3.319,0,1,1,6.638,0v6.638a3.319,3.319,0,1,1-6.638,0Zm0,26.551a3.319,3.319,0,1,1,6.638,0v6.638a3.319,3.319,0,1,1-6.638,0ZM42.038,29.87a3.319,3.319,0,1,1,6.638,0v6.638a3.319,3.319,0,0,1-6.638,0Zm0,26.551a3.319,3.319,0,0,1,6.638,0v6.638a3.319,3.319,0,0,1-6.638,0Zm0,26.551a3.319,3.319,0,1,1,6.638,0v6.638a3.319,3.319,0,1,1-6.638,0ZM22.125,29.87a3.319,3.319,0,1,1,6.638,0v6.638a3.319,3.319,0,0,1-6.638,0Zm0,26.551a3.319,3.319,0,0,1,6.638,0v6.638a3.319,3.319,0,0,1-6.638,0Zm0,26.551a3.319,3.319,0,1,1,6.638,0v6.638a3.319,3.319,0,1,1-6.638,0Z" transform="translate(278.976 408.551)" fill="#333348"/>
      </g>
    </g>
  </g>
</svg>
