<svg xmlns="http://www.w3.org/2000/svg" xmlns:xlink="http://www.w3.org/1999/xlink" width="57.359" height="65.231" viewBox="0 0 57.359 65.231"><defs><filter id="a" x="0" y="0" width="57.359" height="65.231" filterUnits="userSpaceOnUse"><feOffset dy="3" input="SourceAlpha"/><feGaussianBlur stdDeviation="3" result="b"/><feFlood flood-opacity="0.161"/><feComposite operator="in" in2="b"/><feComposite in="SourceGraphic"/></filter></defs><g transform="translate(-239 -376)"><g transform="translate(205.333 382)"><g transform="translate(42.667)"><g transform="matrix(1, 0, 0, 1, -9, -6)" filter="url(#a)"><path d="M62.346,0A19.676,19.676,0,0,0,48.482,33.641l13.164,13.3a.984.984,0,0,0,1.4,0L76.2,33.648A19.677,19.677,0,0,0,62.346,0Zm0,27.551a7.872,7.872,0,1,1,7.872-7.872A7.88,7.88,0,0,1,62.346,27.551Z" transform="translate(-33.67 6)" fill="#23b868"/></g></g></g><ellipse cx="17.5" cy="17" rx="17.5" ry="17" transform="translate(250 384)" fill="#fff"/><path d="M23,22V9.5a.5.5,0,0,0-.3-.46l-7-3a.5.5,0,0,0-.7.46V22H14V.75a.749.749,0,0,0-1.017-.7l-10.5,4A.75.75,0,0,0,2,4.75V22H1a1,1,0,0,0,0,2H23a1,1,0,0,0,0-2Zm-3-9.25a.75.75,0,0,1,1.5,0v1.5a.75.75,0,0,1-1.5,0Zm0,6a.75.75,0,0,1,1.5,0v1.5a.75.75,0,0,1-1.5,0Zm-3.5-6a.75.75,0,0,1,1.5,0v1.5a.75.75,0,0,1-1.5,0Zm0,6a.75.75,0,0,1,1.5,0v1.5a.75.75,0,0,1-1.5,0Zm-7-12a.75.75,0,0,1,1.5,0v1.5a.75.75,0,0,1-1.5,0Zm0,6a.75.75,0,0,1,1.5,0v1.5a.75.75,0,0,1-1.5,0Zm0,6a.75.75,0,0,1,1.5,0v1.5a.75.75,0,0,1-1.5,0ZM5,6.75a.75.75,0,0,1,1.5,0v1.5a.75.75,0,0,1-1.5,0Zm0,6a.75.75,0,0,1,1.5,0v1.5a.75.75,0,0,1-1.5,0Zm0,6a.75.75,0,0,1,1.5,0v1.5a.75.75,0,0,1-1.5,0Z" transform="translate(255 388)" fill="#333348"/></g></svg>