<svg xmlns="http://www.w3.org/2000/svg" xmlns:xlink="http://www.w3.org/1999/xlink" width="57.359" height="65.231" viewBox="0 0 57.359 65.231"><defs><filter id="a" x="0" y="0" width="57.359" height="65.231" filterUnits="userSpaceOnUse"><feOffset dy="3" input="SourceAlpha"/><feGaussianBlur stdDeviation="3" result="b"/><feFlood flood-opacity="0.161"/><feComposite operator="in" in2="b"/><feComposite in="SourceGraphic"/></filter></defs><g transform="translate(-239 -376)"><g transform="translate(205.333 382)"><g transform="translate(42.667)"><g transform="matrix(1, 0, 0, 1, -9, -6)" filter="url(#a)"><path d="M62.346,0A19.676,19.676,0,0,0,48.482,33.641l13.164,13.3a.984.984,0,0,0,1.4,0L76.2,33.648A19.677,19.677,0,0,0,62.346,0Zm0,27.551a7.872,7.872,0,1,1,7.872-7.872A7.88,7.88,0,0,1,62.346,27.551Z" transform="translate(-33.67 6)" fill="#fb034f"/></g></g></g><ellipse cx="17.5" cy="17" rx="17.5" ry="17" transform="translate(250 384)" fill="#fff"/><g transform="translate(256 389)"><path d="M349.857,446.912a11.716,11.716,0,0,0-2.216-1.338l-2.809-1.3a7.579,7.579,0,0,1-1.22,2.173,6.783,6.783,0,0,1-.99,1h7.94Zm0,0" transform="translate(-326.56 -423.451)" fill="#333348"/><path d="M6.95,446.451a7.578,7.578,0,0,1-1.22-2.174l-2.809,1.3A11.716,11.716,0,0,0,.7,446.913l-.7.539H7.94a6.786,6.786,0,0,1-.99-1Zm0,0" transform="translate(0 -423.452)" fill="#333348"/><path d="M159.2,414.742v-.16a7.107,7.107,0,0,1-9.154,0v.16a.705.705,0,0,1-.409.639,5.183,5.183,0,0,0,9.971,0,.7.7,0,0,1-.409-.639Zm0,0" transform="translate(-142.626 -395.148)" fill="#333348"/><path d="M139.719,252.367a5.726,5.726,0,0,0,5.719-5.721v-2.533H134v2.533A5.726,5.726,0,0,0,139.719,252.367Zm0,0" transform="translate(-127.718 -232.67)" fill="#333348"/><path d="M88.058,36.98h14.4a.7.7,0,0,0,0-1.407h-.591v-.727a6.613,6.613,0,0,0-2.889-5.463v2.968a.7.7,0,1,1-1.406,0V28.936a.7.7,0,0,1,.052-.265,6.559,6.559,0,0,0-1.665-.4v4.944a.7.7,0,1,1-1.406,0V28.27a6.554,6.554,0,0,0-1.664.4.7.7,0,0,1,.052.265v3.415a.7.7,0,1,1-1.406,0V29.383a6.613,6.613,0,0,0-2.89,5.464v.727h-.591a.7.7,0,0,0,0,1.407Zm0,0" transform="translate(-83.26 -26.945)" fill="#333348"/><path d="M307.866,28.172a.7.7,0,0,0-1.354-.264,6.593,6.593,0,0,1,1.354.712Zm0,0" transform="translate(-292.143 -26.181)" fill="#333348"/><path d="M177.308,27.469a.7.7,0,0,0-.7.7v.447a6.592,6.592,0,0,1,1.354-.712A.7.7,0,0,0,177.308,27.469Zm0,0" transform="translate(-168.326 -26.181)" fill="#333348"/><path d="M242.406,1.325V.7A.7.7,0,1,0,241,.7v.622a6.6,6.6,0,0,1,1.406,0Zm0,0" transform="translate(-229.703)" fill="#333348"/></g></g></svg>