<svg xmlns="http://www.w3.org/2000/svg" xmlns:xlink="http://www.w3.org/1999/xlink" width="176" height="211" viewBox="0 0 176 211">
  <defs>
    <filter id="Path_222" x="-8" y="-5.802" width="192" height="226.982" filterUnits="userSpaceOnUse">
      <feOffset dy="3" input="SourceAlpha"/>
      <feGaussianBlur stdDeviation="3" result="blur"/>
      <feFlood flood-opacity="0.161"/>
      <feComposite operator="in" in2="blur"/>
      <feComposite in="SourceGraphic"/>
    </filter>
    <clipPath id="clip-build_green_1_2">
      <rect width="176" height="211"/>
    </clipPath>
  </defs>
  <g id="build_green_1_2" data-name="build green 1 – 2" clip-path="url(#clip-build_green_1_2)">
    <g id="User" transform="translate(-247 -381.802)">
      <g id="pin_1_" data-name="pin (1)" transform="translate(248 382)">
        <g id="Group_24" data-name="Group 24" transform="translate(0)">
          <g transform="matrix(1, 0, 0, 1, -1, -0.2)" filter="url(#Path_222)">
            <path id="Path_222-2" data-name="Path 222" d="M129.667,0A87.076,87.076,0,0,0,68.376,148.853l58.2,58.836a4.345,4.345,0,0,0,6.185,0l58.173-58.806A87.08,87.08,0,0,0,129.667,0Zm0,121.906a34.83,34.83,0,1,1,34.8-34.831A34.852,34.852,0,0,1,129.667,121.906Z" transform="translate(-41.67 0.2)" fill="#23b868"/>
          </g>
        </g>
      </g>
      <ellipse id="Ellipse_5" data-name="Ellipse 5" cx="78" cy="75.5" rx="78" ry="75.5" transform="translate(256 389.802)" fill="#fff"/>
      <g id="worker" transform="translate(283.368 412.973)">
        <path id="Path_214" data-name="Path 214" d="M374.609,455.936a51.779,51.779,0,0,0-9.8-5.92l-12.42-5.739A33.542,33.542,0,0,1,347,453.894a30.011,30.011,0,0,1-4.377,4.429h35.1Zm0,0" transform="translate(-271.619 -352.129)" fill="#333348"/>
        <path id="Path_215" data-name="Path 215" d="M30.724,453.9a33.54,33.54,0,0,1-5.394-9.617l-12.42,5.74a51.787,51.787,0,0,0-9.8,5.92L0,458.324H35.1a30.015,30.015,0,0,1-4.377-4.429Zm0,0" transform="translate(0 -352.13)" fill="#333348"/>
        <path id="Path_216" data-name="Path 216" d="M191.917,415.29v-.708a31.4,31.4,0,0,1-40.471,0v.708a3.12,3.12,0,0,1-1.806,2.826s4.8,16.671,22.042,16.671,22.041-16.671,22.041-16.671a3.119,3.119,0,0,1-1.806-2.826Zm0,0" transform="translate(-118.63 -328.593)" fill="#333348"/>
        <path id="Path_217" data-name="Path 217" d="M159.282,280.634a25.326,25.326,0,0,0,25.282-25.315V244.113H134v11.207A25.327,25.327,0,0,0,159.282,280.634Zm0,0" transform="translate(-106.231 -193.481)" fill="#333348"/>
        <path id="Path_218" data-name="Path 218" d="M90.464,66.812h63.678a3.112,3.112,0,0,0,0-6.225h-2.611V57.37A29.266,29.266,0,0,0,138.758,33.2V46.328a3.108,3.108,0,1,1-6.217,0V31.216a3.1,3.1,0,0,1,.23-1.171,28.979,28.979,0,0,0-7.359-1.776V50.146a3.108,3.108,0,1,1-6.217,0V28.27a28.956,28.956,0,0,0-7.357,1.775,3.115,3.115,0,0,1,.229,1.172V46.328a3.108,3.108,0,1,1-6.217,0V33.194A29.268,29.268,0,0,0,93.075,57.37v3.218H90.463a3.112,3.112,0,0,0,0,6.225Zm0,0" transform="translate(-69.252 -22.406)" fill="#333348"/>
        <path id="Path_219" data-name="Path 219" d="M312.5,30.582a3.107,3.107,0,0,0-5.987-1.17,29.134,29.134,0,0,1,5.987,3.149Zm0,0" transform="translate(-242.993 -21.771)" fill="#333348"/>
        <path id="Path_220" data-name="Path 220" d="M179.713,27.469a3.11,3.11,0,0,0-3.108,3.113v1.978a29.136,29.136,0,0,1,5.987-3.149A3.108,3.108,0,0,0,179.713,27.469Zm0,0" transform="translate(-140.007 -21.771)" fill="#333348"/>
        <path id="Path_221" data-name="Path 221" d="M247.217,5.863V3.113a3.109,3.109,0,1,0-6.217,0V5.863a29.172,29.172,0,0,1,6.217,0Zm0,0" transform="translate(-191.057 0)" fill="#333348"/>
      </g>
    </g>
  </g>
</svg>
